# xmcd
#
# Track frame offsets:
#	150
#	16754
#	31687
#	46261
#	56909
#	70064
#	86724
#	100916
#	113533
#	129307
#	149087
#	160349
#	171394
#	185354
#	196554
#	208371
#
# Disc length: 2971 seconds
#
# Revision: 1
# Processed by: cddbd v1.4PL0 Copyright (c) Steve Scherf et al.
# Submitted via: audiograbber 1.81.00
#
DISCID=db0b9910
DTITLE=K D Lang - Shadowland
DYEAR=1900
DGENRE=Country
TTITLE0=Crying (with Roy Orbison)
TTITLE1=Black Coffee
TTITLE2=Rose Garden
TTITLE3=Dont Let The Stars Get In Your Eyes
TTITLE4=Honk Tonk Angels Medley (et al)
TTITLE5=Busy Being Blue
TTITLE6=I Wish I Didn't Love You So
TTITLE7=I'm Down To My Last Cigarettte
TTITLE8=Lock Stock And Teardrops
TTITLE9=Pullin' Back The Reins
TTITLE10=Shadowland
TTITLE11=Sugar Moon
TTITLE12=Tears Don't Care Who Cries Them
TTITLE13=Three Cigarettes In An Ashtray
TTITLE14=Waltz Me Once Again Around The Dance Floor
TTITLE15=Western Stars
EXTD=
EXTT0=
EXTT1=
EXTT2=
EXTT3=
EXTT4=
EXTT5=
EXTT6=
EXTT7=
EXTT8=
EXTT9=
EXTT10=
EXTT11=
EXTT12=
EXTT13=
EXTT14=
EXTT15=
PLAYORDER=
